HIERARCHY
	ROOT pelvis
	{
		OFFSET 0 0 0 
		CHANNELS 6 Xposition Yposition Zposition Zrotation Xrotation Yrotation
		JOINT lfemur_phantom
		{
			OFFSET 0 0.0899607 0 
			CHANNELS 3 Zrotation Xrotation Yrotation
			JOINT lfemur
			{
				OFFSET 0 0 -0.426035 
				CHANNELS 3 Zrotation Xrotation Yrotation
				JOINT ltibia
				{
					OFFSET 0 0 -0.409933 
					CHANNELS 3 Zrotation Xrotation Yrotation
					JOINT lfoot
					{
						OFFSET 0.105631 0 0.00135511 
						CHANNELS 3 Zrotation Xrotation Yrotation
						End Site
						{
							OFFSET 0.0352103 0 0.000451703
						}
					}
				}
			}
		}
		JOINT rfemur_phantom
		{
			OFFSET 0 -0.0899607 0 
			CHANNELS 3 Zrotation Xrotation Yrotation
			JOINT rfemur
			{
				OFFSET 0 0 -0.430137 
				CHANNELS 3 Zrotation Xrotation Yrotation
				JOINT rtibia
				{
					OFFSET 0 0 -0.390377 
					CHANNELS 3 Zrotation Xrotation Yrotation
					JOINT rfoot
					{
						OFFSET 0.106801 0 -0.00121178 
						CHANNELS 3 Zrotation Xrotation Yrotation
						End Site
						{
							OFFSET 0.0356003 0 -0.000403927
						}
					}
				}
			}
		}
		JOINT lowerback_phantom
		{
			OFFSET -0.05 0 0.107967 
			CHANNELS 3 Zrotation Xrotation Yrotation
			JOINT lowerback
			{
				OFFSET 0.0167886 0 0.161801 
				CHANNELS 3 Zrotation Xrotation Yrotation
				JOINT upperback
				{
					OFFSET 0 0 0 
					CHANNELS 3 Zrotation Xrotation Yrotation
					JOINT lclavicle_phantom
					{
						OFFSET 0 0 0.199349 
						CHANNELS 3 Zrotation Xrotation Yrotation
						JOINT lclavicle
						{
							OFFSET 0 0.164108 -0.0174105 
							CHANNELS 3 Zrotation Xrotation Yrotation
							JOINT lhumerus
							{
								OFFSET 0 0 -0.275026 
								CHANNELS 3 Zrotation Xrotation Yrotation
								JOINT lradius
								{
									OFFSET 0 0 -0.248775 
									CHANNELS 3 Zrotation Xrotation Yrotation
									End Site
									{
										OFFSET 0 0 -0.082925
									}
								}
							}
						}
					}
					JOINT rclavicle_phantom
					{
						OFFSET 0 0 0.199349 
						CHANNELS 3 Zrotation Xrotation Yrotation
						JOINT rclavicle
						{
							OFFSET 0 -0.165322 -0.0298984 
							CHANNELS 3 Zrotation Xrotation Yrotation
							JOINT rhumerus
							{
								OFFSET 0 0 -0.273337 
								CHANNELS 3 Zrotation Xrotation Yrotation
								JOINT rradius
								{
									OFFSET 0 0 -0.254845 
									CHANNELS 3 Zrotation Xrotation Yrotation
									End Site
									{
										OFFSET 0 0 -0.0849483
									}
								}
							}
						}
					}
					JOINT LowerNeck_phantom
					{
						OFFSET 0 0 0.199349 
						CHANNELS 3 Zrotation Xrotation Yrotation
						JOINT LowerNeck
						{
							OFFSET -0.0127292 -0.000602123 0.105365 
							CHANNELS 3 Zrotation Xrotation Yrotation
							End Site
							{
								OFFSET -0.00424307 -0.000200708 0.0351217
							}
						}
					}
				}
			}
		}
	}
MOTION
Frames:	9
Frame Time:	0.0166667
0.036485 0.894186 1.11022e-016 91.746 -53.5145 87.2189 16.7612 10.1002 -0.0408451 31.1689 1.79197 2.95941 -3.59014 -13.6631 30.1248 -5.43439e-006 2.37429e-006 10.1718 -5.91621 -2.49599 0.538252 -30.1218 -6.70068 11.3711 6.16213 10.1878 13.5998 -1.03323e-006 1.18107e-007 28.5709 -0.990679 3.17783 4.8119 0.96892 3.40847 2.90894 -0 0 -0 -5.76631 -11.6855 -1.1717 24.9774 26.8926 -7.87674 0.022834 0.0289889 -128.234 -1.24835e-006 0.279894 -18.5362 1.46488 2.99882 -0.0766521 35.6348 -32.2624 -12.7762 7.58135 9.83854 -127.916 1.11486e-006 -0.695002 -8.83378 -2.42371 1.56103 38.4391 30.818 -31.7305 -61.0517 
0.0358276 0.894261 -0.00132 91.6373 -53.5006 87.1536 17.041 9.95668 -0.130467 30.8934 1.86259 3.10938 -3.63352 -13.6992 29.9898 -1.07018e-005 1.77436e-006 10.188 -5.89832 -2.64669 0.567097 -30.1949 -6.66366 11.2779 6.16732 10.2166 13.6493 9.04738e-009 -4.15356e-007 28.5888 -0.983801 3.15394 4.79555 1.01804 3.47305 2.90014 -0 0 -0 -5.8124 -11.7007 -1.18264 25.4635 26.9075 -8.08016 0.120858 0.153408 -128.232 -6.19316e-006 0.204303 -18.5155 1.46785 2.97666 -0.0762403 35.6129 -32.2914 -12.8494 7.5764 9.83306 -127.913 1.27991e-005 -0.667542 -8.81465 -2.28378 1.41099 38.2863 30.5345 -31.5097 -60.7973 
0.0350793 0.894322 -0.002757 91.4868 -53.5212 87.0586 16.9193 9.76738 -0.0501191 31.0138 1.86662 3.1013 -3.64404 -13.6736 29.9218 8.1604e-007 2.91775e-007 10.1661 -5.88396 -2.83804 0.560353 -30.2179 -6.64169 11.2317 6.18103 10.2575 13.6929 -7.33918e-007 -3.16684e-007 28.5934 -0.896863 3.16033 4.73681 1.02472 3.48865 2.88897 -0 0 -0 -5.90804 -11.7 -1.20216 26.0787 26.8872 -8.24213 0.307144 0.389645 -128.248 3.74095e-006 0.0281115 -18.5244 1.47659 2.931 -0.0755191 35.61 -32.268 -12.8736 7.56167 9.81415 -127.911 1.12219e-005 -0.713843 -8.83856 -2.41179 1.43231 38.3492 30.7464 -31.6878 -60.7627 
0.0342868 0.894391 -0.004241 91.3412 -53.5488 86.9728 16.8961 9.57873 -0.00501563 31.0487 1.88098 3.12081 -3.6592 -13.6498 29.8371 -1.02163e-006 1.37203e-006 10.1459 -5.86541 -3.02814 0.540284 -30.2368 -6.62356 11.1937 6.19114 10.2962 13.7458 -2.22473e-007 3.75271e-007 28.5842 -0.853705 3.14579 4.70646 1.08761 3.52371 2.87138 -0 0 -0 -6.02952 -11.6986 -1.22692 26.7989 26.8441 -8.44514 0.498619 0.632452 -128.253 6.82639e-006 -0.220429 -18.5826 1.48573 2.88197 -0.0747176 35.5985 -32.253 -12.9154 7.55824 9.80925 -127.912 5.61103e-006 -0.765317 -8.85885 -2.44981 1.36832 38.3163 30.7676 -31.6966 -60.647 
0.0334182 0.894464 -0.005795 91.1708 -53.5924 86.8696 16.7113 9.36453 0.100894 31.2459 1.87279 3.08323 -3.65775 -13.5984 29.7893 4.39215e-006 -1.22744e-006 10.1117 -5.86134 -3.24237 0.494224 -30.2336 -6.61828 11.1864 6.21351 10.3547 13.7958 4.01035e-007 3.11768e-007 28.5708 -0.81313 3.09643 4.68827 1.16065 3.57608 2.85015 -0 0 -0 -6.18181 -11.6983 -1.25809 27.7288 26.7597 -8.69624 0.55048 0.698796 -128.23 2.42885e-006 -0.830233 -18.7402 1.50626 2.83318 -0.0744702 35.5891 -32.2423 -12.9509 7.55513 9.80341 -127.917 5.37231e-006 -0.824411 -8.86234 -2.51939 1.30504 38.3125 30.8404 -31.7402 -60.6145 
0.0325146 0.894539 -0.007359 91.0222 -53.6418 86.7838 16.8834 9.17232 0.0831462 31.1085 1.9129 3.16618 -3.68166 -13.5791 29.6739 3.01068e-006 -1.52284e-006 10.0928 -5.789 -3.43652 0.467122 -30.2769 -6.60233 11.1414 6.21322 10.3866 13.8741 4.39099e-007 2.40276e-007 28.5534 -0.772645 3.05154 4.67284 1.21825 3.63648 2.82867 -0 0 -0 -6.35303 -11.7108 -1.29457 28.8749 26.6416 -8.99321 0.355267 0.45223 -128.154 -1.3682e-005 -1.82053 -18.9949 1.53736 2.78552 -0.0747285 35.5875 -32.233 -12.9714 7.54135 9.78324 -127.922 -1.24778e-005 -0.859762 -8.83736 -2.61296 1.22679 38.3595 30.9658 -31.8211 -60.699 
0.0315418 0.89462 -0.008988 90.8381 -53.6974 86.6679 16.7873 8.94663 0.160338 31.227 1.92009 3.16327 -3.68391 -13.5321 29.6151 4.0925e-006 3.62984e-006 10.0521 -5.77567 -3.66476 0.418276 -30.2721 -6.59407 11.13 6.23195 10.4431 13.9333 7.25369e-007 -4.77173e-007 28.554 -0.741029 2.99603 4.65953 1.274 3.67535 2.81147 -0 0 -0 -6.5137 -11.7327 -1.33003 29.9884 26.5238 -9.25176 0.256474 0.327516 -128.064 4.77316e-007 -2.2473 -19.1397 1.56454 2.74516 -0.0749493 35.5943 -32.2224 -12.9803 7.5132 9.74792 -127.917 2.68761e-006 -0.869377 -8.80898 -2.67319 1.15331 38.386 31.0492 -31.8743 -60.7632 
0.0305361 0.894688 -0.010617 90.6529 -53.7588 86.5559 16.7964 8.72166 0.195463 31.259 1.94499 3.20015 -3.699 -13.5087 29.53 1.24011e-005 -8.32514e-006 10.0184 -5.77586 -3.89494 0.356613 -30.2456 -6.58607 11.1284 6.24629 10.4891 13.9846 4.57723e-007 -1.58719e-007 28.5613 -0.714516 2.93342 4.65198 1.32843 3.70747 2.79464 -0 0 -0 -6.65494 -11.7676 -1.36311 31.0408 26.4235 -9.48862 0.217957 0.279392 -127.957 1.00875e-005 -2.16255 -19.1897 1.57893 2.71278 -0.0747474 35.6112 -32.2077 -12.9869 7.47461 9.70754 -127.886 -9.69215e-006 -0.867672 -8.79739 -2.70491 1.08338 38.3764 31.0975 -31.8936 -60.7878 
0.0295163 0.894742 -0.012236 90.4822 -53.8253 86.4599 16.9477 8.5089 0.1725 31.1732 1.99623 3.29534 -3.73306 -13.5168 29.4027 -6.03745e-006 2.53933e-006 10.0024 -5.74409 -4.11254 0.296081 -30.229 -6.57409 11.1159 6.24385 10.5105 14.0454 5.95073e-007 7.61906e-007 28.5589 -0.681423 2.84881 4.66089 1.36552 3.76556 2.76935 -0 0 -0 -6.76904 -11.8251 -1.39336 32.1163 26.3254 -9.75601 0.0539616 0.0695217 -127.822 -2.84951e-007 -2.15558 -19.2793 1.58709 2.68221 -0.0742884 35.6417 -32.1886 -12.9929 7.43478 9.674 -127.831 -2.07238e-005 -0.873236 -8.7847 -2.73922 0.969927 38.3727 31.1566 -31.8904 -60.8796 
